<svg xmlns="http://www.w3.org/2000/svg" xmlns:xlink="http://www.w3.org/1999/xlink" width="500" zoomAndPan="magnify" viewBox="0 0 375 374.999991" height="500" preserveAspectRatio="xMidYMid meet" version="1.0"><defs><clipPath id="id1"><path d="M 0 0 L 375 0 L 375 374.785156 L 0 374.785156 Z M 0 0 " clip-rule="nonzero"/></clipPath></defs><g clip-path="url(#id1)"><path fill="#332c54" d="M 310.890625 -7.714844 L 71.609375 -7.714844 C 70.4375 -7.714844 69.265625 -7.683594 68.09375 -7.628906 C 66.925781 -7.570312 65.757812 -7.484375 64.589844 -7.367188 C 63.421875 -7.253906 62.261719 -7.109375 61.101562 -6.9375 C 59.941406 -6.765625 58.789062 -6.566406 57.636719 -6.335938 C 56.488281 -6.109375 55.347656 -5.851562 54.210938 -5.566406 C 53.074219 -5.28125 51.941406 -4.96875 50.820312 -4.628906 C 49.699219 -4.289062 48.585938 -3.921875 47.484375 -3.527344 C 46.382812 -3.132812 45.289062 -2.710938 44.207031 -2.261719 C 43.121094 -1.8125 42.050781 -1.339844 40.992188 -0.839844 C 39.933594 -0.335938 38.886719 0.191406 37.851562 0.742188 C 36.820312 1.292969 35.800781 1.871094 34.792969 2.472656 C 33.789062 3.078125 32.800781 3.703125 31.824219 4.355469 C 30.851562 5.003906 29.894531 5.679688 28.953125 6.378906 C 28.011719 7.078125 27.085938 7.796875 26.179688 8.539062 C 25.273438 9.285156 24.386719 10.050781 23.519531 10.835938 C 22.652344 11.625 21.800781 12.429688 20.972656 13.261719 C 20.144531 14.089844 19.335938 14.9375 18.550781 15.804688 C 17.761719 16.675781 16.996094 17.5625 16.253906 18.46875 C 15.511719 19.371094 14.789062 20.296875 14.09375 21.238281 C 13.394531 22.179688 12.71875 23.136719 12.066406 24.113281 C 11.417969 25.085938 10.789062 26.074219 10.1875 27.082031 C 9.585938 28.085938 9.007812 29.105469 8.457031 30.140625 C 7.902344 31.171875 7.375 32.21875 6.875 33.277344 C 6.375 34.339844 5.898438 35.410156 5.449219 36.492188 C 5.003906 37.574219 4.582031 38.667969 4.1875 39.769531 C 3.792969 40.875 3.421875 41.988281 3.082031 43.109375 C 2.742188 44.230469 2.429688 45.359375 2.144531 46.496094 C 1.859375 47.632812 1.605469 48.777344 1.375 49.925781 C 1.148438 51.074219 0.945312 52.230469 0.773438 53.386719 C 0.601562 54.546875 0.460938 55.710938 0.34375 56.875 C 0.230469 58.042969 0.144531 59.210938 0.0859375 60.382812 C 0.0273438 61.550781 0 62.722656 0 63.894531 L 0 303.179688 C 0 304.351562 0.0273438 305.519531 0.0859375 306.691406 C 0.144531 307.863281 0.230469 309.03125 0.34375 310.195312 C 0.460938 311.363281 0.601562 312.527344 0.773438 313.683594 C 0.945312 314.84375 1.148438 316 1.375 317.148438 C 1.605469 318.296875 1.859375 319.441406 2.144531 320.578125 C 2.429688 321.714844 2.742188 322.84375 3.082031 323.964844 C 3.421875 325.085938 3.792969 326.199219 4.1875 327.300781 C 4.582031 328.40625 5.003906 329.5 5.449219 330.582031 C 5.898438 331.664062 6.375 332.734375 6.875 333.792969 C 7.375 334.855469 7.902344 335.898438 8.457031 336.933594 C 9.007812 337.96875 9.585938 338.988281 10.1875 339.992188 C 10.789062 340.996094 11.417969 341.988281 12.066406 342.960938 C 12.71875 343.9375 13.394531 344.894531 14.09375 345.835938 C 14.789062 346.777344 15.511719 347.699219 16.253906 348.605469 C 16.996094 349.511719 17.761719 350.398438 18.550781 351.265625 C 19.335938 352.136719 20.144531 352.984375 20.972656 353.8125 C 21.800781 354.640625 22.652344 355.449219 23.519531 356.234375 C 24.386719 357.023438 25.273438 357.789062 26.179688 358.53125 C 27.085938 359.277344 28.011719 359.996094 28.953125 360.695312 C 29.894531 361.390625 30.851562 362.066406 31.824219 362.71875 C 32.800781 363.371094 33.789062 363.996094 34.792969 364.597656 C 35.800781 365.199219 36.820312 365.777344 37.851562 366.332031 C 38.886719 366.882812 39.933594 367.410156 40.992188 367.910156 C 42.050781 368.414062 43.121094 368.886719 44.207031 369.335938 C 45.289062 369.785156 46.382812 370.207031 47.484375 370.601562 C 48.585938 370.996094 49.699219 371.363281 50.820312 371.703125 C 51.941406 372.042969 53.074219 372.355469 54.210938 372.640625 C 55.347656 372.925781 56.488281 373.183594 57.636719 373.410156 C 58.789062 373.640625 59.941406 373.839844 61.101562 374.011719 C 62.261719 374.183594 63.421875 374.328125 64.589844 374.441406 C 65.757812 374.554688 66.925781 374.644531 68.09375 374.699219 C 69.265625 374.757812 70.4375 374.785156 71.609375 374.785156 L 310.890625 374.785156 C 312.0625 374.785156 313.234375 374.757812 314.40625 374.699219 C 315.574219 374.644531 316.742188 374.554688 317.910156 374.441406 C 319.078125 374.328125 320.238281 374.183594 321.398438 374.011719 C 322.558594 373.839844 323.710938 373.640625 324.863281 373.410156 C 326.011719 373.183594 327.152344 372.925781 328.289062 372.640625 C 329.425781 372.355469 330.558594 372.042969 331.679688 371.703125 C 332.800781 371.363281 333.910156 370.996094 335.015625 370.601562 C 336.117188 370.207031 337.210938 369.785156 338.292969 369.335938 C 339.378906 368.886719 340.449219 368.414062 341.507812 367.910156 C 342.566406 367.410156 343.613281 366.882812 344.648438 366.332031 C 345.679688 365.777344 346.699219 365.199219 347.707031 364.597656 C 348.710938 363.996094 349.699219 363.371094 350.675781 362.71875 C 351.648438 362.066406 352.605469 361.390625 353.546875 360.695312 C 354.488281 359.996094 355.414062 359.277344 356.320312 358.53125 C 357.226562 357.789062 358.113281 357.023438 358.980469 356.234375 C 359.847656 355.449219 360.699219 354.640625 361.527344 353.8125 C 362.355469 352.984375 363.164062 352.136719 363.949219 351.265625 C 364.738281 350.398438 365.503906 349.511719 366.246094 348.605469 C 366.988281 347.699219 367.710938 346.777344 368.40625 345.835938 C 369.105469 344.894531 369.78125 343.9375 370.433594 342.960938 C 371.082031 341.988281 371.710938 340.996094 372.3125 339.992188 C 372.914062 338.988281 373.492188 337.96875 374.042969 336.933594 C 374.597656 335.898438 375.125 334.855469 375.625 333.792969 C 376.125 332.734375 376.601562 331.664062 377.050781 330.582031 C 377.496094 329.5 377.917969 328.40625 378.3125 327.300781 C 378.707031 326.199219 379.078125 325.085938 379.417969 323.964844 C 379.757812 322.84375 380.070312 321.714844 380.355469 320.578125 C 380.640625 319.441406 380.894531 318.296875 381.125 317.148438 C 381.351562 316 381.554688 314.84375 381.726562 313.683594 C 381.898438 312.527344 382.039062 311.363281 382.15625 310.195312 C 382.269531 309.03125 382.355469 307.863281 382.414062 306.691406 C 382.472656 305.519531 382.5 304.351562 382.5 303.179688 L 382.5 63.894531 C 382.5 62.722656 382.472656 61.550781 382.414062 60.382812 C 382.355469 59.210938 382.269531 58.042969 382.15625 56.875 C 382.039062 55.710938 381.898438 54.546875 381.726562 53.386719 C 381.554688 52.230469 381.351562 51.074219 381.125 49.925781 C 380.894531 48.777344 380.640625 47.632812 380.355469 46.496094 C 380.070312 45.359375 379.757812 44.230469 379.417969 43.109375 C 379.078125 41.988281 378.707031 40.875 378.3125 39.769531 C 377.917969 38.667969 377.496094 37.574219 377.050781 36.492188 C 376.601562 35.410156 376.125 34.335938 375.625 33.277344 C 375.125 32.21875 374.597656 31.171875 374.042969 30.140625 C 373.492188 29.105469 372.914062 28.085938 372.3125 27.082031 C 371.710938 26.074219 371.082031 25.085938 370.433594 24.113281 C 369.78125 23.136719 369.105469 22.179688 368.40625 21.238281 C 367.710938 20.296875 366.988281 19.371094 366.246094 18.46875 C 365.503906 17.5625 364.738281 16.675781 363.949219 15.804688 C 363.164062 14.9375 362.355469 14.089844 361.527344 13.261719 C 360.699219 12.429688 359.847656 11.625 358.980469 10.835938 C 358.113281 10.050781 357.226562 9.285156 356.320312 8.539062 C 355.414062 7.796875 354.488281 7.078125 353.546875 6.378906 C 352.605469 5.679688 351.648438 5.003906 350.675781 4.355469 C 349.699219 3.703125 348.710938 3.078125 347.707031 2.472656 C 346.699219 1.871094 345.679688 1.292969 344.648438 0.742188 C 343.613281 0.191406 342.566406 -0.335938 341.507812 -0.839844 C 340.449219 -1.339844 339.378906 -1.8125 338.292969 -2.261719 C 337.210938 -2.710938 336.117188 -3.132812 335.015625 -3.527344 C 333.914062 -3.921875 332.800781 -4.289062 331.679688 -4.628906 C 330.558594 -4.96875 329.425781 -5.28125 328.289062 -5.566406 C 327.152344 -5.851562 326.011719 -6.109375 324.863281 -6.335938 C 323.710938 -6.566406 322.558594 -6.765625 321.398438 -6.9375 C 320.238281 -7.109375 319.078125 -7.253906 317.910156 -7.367188 C 316.742188 -7.484375 315.574219 -7.570312 314.40625 -7.628906 C 313.234375 -7.683594 312.0625 -7.714844 310.890625 -7.714844 Z M 253.230469 156.703125 C 254.109375 156.703125 254.988281 156.746094 255.863281 156.832031 C 256.738281 156.917969 257.609375 157.046875 258.472656 157.21875 C 259.335938 157.390625 260.1875 157.601562 261.027344 157.859375 C 261.871094 158.113281 262.699219 158.410156 263.511719 158.746094 C 264.324219 159.082031 265.121094 159.460938 265.894531 159.875 C 266.671875 160.289062 267.425781 160.742188 268.15625 161.230469 C 268.890625 161.71875 269.59375 162.242188 270.277344 162.800781 C 270.957031 163.359375 271.605469 163.949219 272.230469 164.570312 C 272.851562 165.195312 273.441406 165.847656 274 166.527344 C 274.558594 167.207031 275.082031 167.914062 275.570312 168.644531 C 276.058594 169.375 276.511719 170.128906 276.925781 170.90625 C 277.34375 171.683594 277.71875 172.476562 278.054688 173.289062 C 278.390625 174.101562 278.6875 174.929688 278.941406 175.773438 C 279.199219 176.613281 279.414062 177.46875 279.582031 178.332031 C 279.753906 179.195312 279.882812 180.0625 279.972656 180.9375 C 280.058594 181.816406 280.101562 182.691406 280.101562 183.574219 C 280.097656 184.453125 280.054688 185.328125 279.96875 186.203125 C 279.878906 187.078125 279.75 187.949219 279.578125 188.808594 C 279.40625 189.671875 279.191406 190.523438 278.933594 191.367188 C 278.679688 192.207031 278.382812 193.03125 278.042969 193.84375 C 277.707031 194.65625 277.332031 195.449219 276.914062 196.226562 C 276.5 197 276.046875 197.753906 275.558594 198.484375 C 275.070312 199.214844 274.546875 199.921875 273.988281 200.601562 C 273.429688 201.277344 272.839844 201.929688 272.214844 202.550781 C 271.59375 203.171875 270.945312 203.761719 270.261719 204.320312 C 269.582031 204.875 268.878906 205.398438 268.144531 205.886719 C 267.414062 206.375 266.660156 206.828125 265.886719 207.242188 C 265.109375 207.65625 264.316406 208.03125 263.503906 208.367188 C 262.691406 208.703125 261.863281 208.996094 261.023438 209.253906 C 260.179688 209.507812 259.328125 209.722656 258.464844 209.894531 C 257.605469 210.0625 256.734375 210.191406 255.859375 210.277344 C 254.984375 210.363281 254.109375 210.40625 253.230469 210.40625 L 138.628906 210.40625 L 163.195312 269.863281 L 295.558594 269.863281 C 296.453125 269.847656 297.34375 269.875 298.234375 269.949219 C 299.125 270.023438 300.011719 270.140625 300.890625 270.304688 C 301.769531 270.464844 302.636719 270.671875 303.496094 270.917969 C 304.355469 271.167969 305.199219 271.457031 306.027344 271.789062 C 306.859375 272.121094 307.667969 272.492188 308.460938 272.902344 C 309.253906 273.316406 310.023438 273.765625 310.773438 274.257812 C 311.519531 274.746094 312.242188 275.269531 312.941406 275.828125 C 313.636719 276.390625 314.300781 276.984375 314.9375 277.609375 C 315.578125 278.238281 316.179688 278.894531 316.753906 279.582031 C 317.324219 280.269531 317.859375 280.980469 318.363281 281.722656 C 318.863281 282.460938 319.328125 283.222656 319.753906 284.011719 C 320.175781 284.796875 320.5625 285.601562 320.90625 286.425781 C 321.253906 287.25 321.558594 288.089844 321.820312 288.941406 C 322.082031 289.796875 322.300781 290.664062 322.476562 291.539062 C 322.652344 292.414062 322.785156 293.296875 322.875 294.1875 C 322.960938 295.078125 323.007812 295.96875 323.007812 296.863281 C 323.007812 297.753906 322.960938 298.648438 322.875 299.535156 C 322.785156 300.425781 322.652344 301.308594 322.476562 302.183594 C 322.300781 303.0625 322.082031 303.925781 321.820312 304.78125 C 321.558594 305.632812 321.253906 306.472656 320.90625 307.296875 C 320.5625 308.121094 320.175781 308.925781 319.753906 309.714844 C 319.328125 310.5 318.863281 311.261719 318.363281 312.003906 C 317.859375 312.742188 317.324219 313.457031 316.753906 314.144531 C 316.179688 314.828125 315.578125 315.484375 314.9375 316.113281 C 314.300781 316.738281 313.636719 317.332031 312.941406 317.894531 C 312.242188 318.453125 311.519531 318.980469 310.773438 319.46875 C 310.023438 319.957031 309.253906 320.40625 308.460938 320.820312 C 307.667969 321.230469 306.859375 321.605469 306.027344 321.9375 C 305.199219 322.265625 304.355469 322.558594 303.496094 322.804688 C 302.636719 323.054688 301.769531 323.257812 300.890625 323.417969 C 300.011719 323.582031 299.125 323.699219 298.234375 323.773438 C 297.34375 323.847656 296.453125 323.875 295.558594 323.863281 L 130.488281 323.863281 C 128.636719 323.863281 126.789062 323.726562 124.957031 323.453125 C 123.121094 323.183594 121.316406 322.777344 119.542969 322.238281 C 117.769531 321.699219 116.042969 321.03125 114.367188 320.238281 C 112.691406 319.445312 111.082031 318.535156 109.539062 317.503906 C 108 316.472656 106.542969 315.332031 105.167969 314.085938 C 103.796875 312.839844 102.523438 311.5 101.347656 310.0625 C 100.171875 308.628906 99.109375 307.117188 98.15625 305.523438 C 97.207031 303.933594 96.375 302.277344 95.667969 300.566406 L 83 269.929688 L 108.808594 269.929688 L 84.835938 210.394531 L 58.410156 210.394531 L 47.085938 183.023438 L 58.097656 156.664062 L 84.863281 156.664062 L 108.835938 97.117188 L 82.875 97.117188 L 95.683594 66.421875 C 96.394531 64.710938 97.226562 63.066406 98.179688 61.480469 C 99.136719 59.898438 100.199219 58.390625 101.375 56.964844 C 102.550781 55.535156 103.824219 54.199219 105.195312 52.960938 C 106.570312 51.71875 108.023438 50.585938 109.5625 49.5625 C 111.101562 48.535156 112.707031 47.628906 114.378906 46.839844 C 116.050781 46.046875 117.773438 45.386719 119.542969 44.851562 C 121.3125 44.3125 123.113281 43.910156 124.941406 43.640625 C 126.773438 43.367188 128.609375 43.234375 130.460938 43.234375 L 295.558594 43.234375 C 296.453125 43.21875 297.34375 43.246094 298.234375 43.320312 C 299.125 43.394531 300.011719 43.511719 300.890625 43.675781 C 301.769531 43.835938 302.636719 44.042969 303.496094 44.289062 C 304.355469 44.539062 305.199219 44.828125 306.027344 45.160156 C 306.859375 45.492188 307.667969 45.863281 308.460938 46.273438 C 309.253906 46.6875 310.027344 47.136719 310.773438 47.628906 C 311.523438 48.117188 312.242188 48.640625 312.941406 49.199219 C 313.636719 49.761719 314.300781 50.355469 314.941406 50.980469 C 315.578125 51.609375 316.179688 52.265625 316.753906 52.953125 C 317.324219 53.640625 317.863281 54.351562 318.363281 55.09375 C 318.863281 55.832031 319.328125 56.59375 319.753906 57.382812 C 320.179688 58.167969 320.5625 58.972656 320.910156 59.796875 C 321.253906 60.621094 321.558594 61.460938 321.820312 62.316406 C 322.082031 63.167969 322.300781 64.035156 322.476562 64.910156 C 322.652344 65.785156 322.785156 66.667969 322.875 67.558594 C 322.960938 68.449219 323.007812 69.339844 323.007812 70.234375 C 323.007812 71.125 322.960938 72.019531 322.875 72.90625 C 322.785156 73.796875 322.652344 74.679688 322.476562 75.554688 C 322.300781 76.433594 322.082031 77.296875 321.820312 78.152344 C 321.558594 79.007812 321.253906 79.84375 320.910156 80.667969 C 320.5625 81.492188 320.179688 82.300781 319.753906 83.085938 C 319.328125 83.871094 318.863281 84.632812 318.363281 85.375 C 317.863281 86.113281 317.324219 86.828125 316.753906 87.515625 C 316.179688 88.199219 315.578125 88.859375 314.941406 89.484375 C 314.300781 90.109375 313.636719 90.703125 312.941406 91.265625 C 312.242188 91.824219 311.523438 92.351562 310.773438 92.839844 C 310.027344 93.328125 309.253906 93.777344 308.460938 94.191406 C 307.667969 94.601562 306.859375 94.976562 306.027344 95.308594 C 305.199219 95.640625 304.355469 95.929688 303.496094 96.175781 C 302.636719 96.425781 301.769531 96.628906 300.890625 96.792969 C 300.011719 96.953125 299.125 97.070312 298.234375 97.144531 C 297.34375 97.21875 296.453125 97.246094 295.558594 97.234375 L 163.144531 97.234375 L 138.367188 156.6875 Z M 253.230469 156.703125 " fill-opacity="1" fill-rule="nonzero"/></g></svg>